<svg xmlns="http://www.w3.org/2000/svg" viewBox="0 0 551.034 551.034" width="100" height="100">
  <linearGradient id="a" x1="275.517" x2="275.517" y1="5.003" y2="549.999" gradientUnits="userSpaceOnUse">
    <stop offset="0" stop-color="#f09433"/>
    <stop offset="0.25" stop-color="#e6683c"/>
    <stop offset="0.5" stop-color="#dc2743"/>
    <stop offset="0.75" stop-color="#cc2366"/>
    <stop offset="1" stop-color="#bc1888"/>
  </linearGradient>
  <path fill="url(#a)" d="M386.878 0H164.155C73.421 0 0 73.42 0 164.154v222.724c0 90.733 73.42 164.155 164.155 164.155h222.724c90.733 0 164.155-73.422 164.155-164.155V164.154C551.033 73.42 477.611 0 386.878 0zm109.55 386.878c0 60.492-49.057 109.55-109.55 109.55H164.155c-60.492 0-109.55-49.058-109.55-109.55V164.154c0-60.493 49.058-109.55 109.55-109.55h222.724c60.493 0 109.55 49.057 109.55 109.55z"/>
  <path fill="url(#a)" d="M275.517 133.129c-78.407 0-142.388 63.981-142.388 142.388s63.981 142.388 142.388 142.388 142.388-63.981 142.388-142.388-63.98-142.388-142.388-142.388zm0 233.731c-50.39 0-91.343-40.954-91.343-91.343s40.954-91.343 91.343-91.343 91.343 40.954 91.343 91.343-40.953 91.343-91.343 91.343z"/>
  <circle fill="url(#a)" cx="418.31" cy="134.07" r="34.15"/>
</svg>
